<?xml version="1.0" encoding="utf-8" standalone="no"?>
<svg xmlns:dc="http://purl.org/dc/elements/1.1/" xmlns:cc="http://creativecommons.org/ns#" xmlns:rdf="http://www.w3.org/1999/02/22-rdf-syntax-ns#" xmlns:svg="http://www.w3.org/2000/svg" xmlns="http://www.w3.org/2000/svg" viewBox="0 312.94702 1198.1107 208.63135" height="208.63135" width="1198.1107" xml:space="preserve" id="svg2" version="1.1">
  <metadata id="metadata8">
    <rdf:RDF>
      <cc:Work rdf:about="">
        <dc:format>image/svg+xml</dc:format>
        <dc:type rdf:resource="http://purl.org/dc/dcmitype/StillImage" />
      </cc:Work>
    </rdf:RDF>
  </metadata>
  <defs id="defs6">
    <clipPath id="clipPath26" clipPathUnits="userSpaceOnUse">
      <path id="path24" d="M 0,651.973 H 898.583 V 0 H 0 Z" />
    </clipPath>
  </defs>
  <g transform="matrix(1.3333333,0,0,-1.3333333,0,869.29733)" id="g10">
    <g transform="translate(120.366,355.9999)" id="g12">
      <path id="path14" style="fill:#bd2931;fill-opacity:1;fill-rule:nonzero;stroke:none" d="m 0,0 v 6.675 l 7.381,5.699 V 0 Z m -11.397,0 v 6.675 l 7.327,5.699 V 0 Z" />
    </g>
    <g transform="translate(150.7039,355.9452)" id="g16">
      <path id="path18" style="fill:#bd2931;fill-opacity:1;fill-rule:nonzero;stroke:none" d="M 0,0 V -31.912 H -7.544 V 0 H -17.638 V 6.73 H 10.095 V 0 Z" />
    </g>
    <g id="g20">
      <g clip-path="url(#clipPath26)" id="g22">
        <g transform="translate(194.7737,337.2758)" id="g28">
          <path id="path30" style="fill:#bd2931;fill-opacity:1;fill-rule:nonzero;stroke:none" d="m 0,0 c 0,-2.063 -0.372,-3.926 -1.113,-5.59 -0.742,-1.665 -1.755,-3.085 -3.039,-4.261 -1.285,-1.176 -2.786,-2.089 -4.505,-2.74 -1.718,-0.652 -3.573,-0.977 -5.563,-0.977 -1.99,0 -3.844,0.325 -5.563,0.977 -1.718,0.651 -3.22,1.564 -4.504,2.74 -1.285,1.176 -2.298,2.596 -3.04,4.261 -0.741,1.664 -1.112,3.527 -1.112,5.59 v 25.399 h 7.544 V 0.271 c 0,-2.244 0.597,-3.989 1.791,-5.237 1.194,-1.248 2.822,-1.872 4.884,-1.872 2.063,0 3.699,0.624 4.912,1.872 1.212,1.248 1.818,2.993 1.818,5.237 V 25.399 H 0 Z" />
        </g>
        <g transform="translate(217.9476,355.9452)" id="g32">
          <path id="path34" style="fill:#bd2931;fill-opacity:1;fill-rule:nonzero;stroke:none" d="M 0,0 V -31.912 H -7.544 V 0 H -17.638 V 6.73 H 10.095 V 0 Z" />
        </g>
        <g transform="translate(248.9373,355.9452)" id="g36">
          <path id="path38" style="fill:#bd2931;fill-opacity:1;fill-rule:nonzero;stroke:none" d="M 0,0 V -31.912 H -7.544 V 0 H -17.638 V 6.73 H 10.095 V 0 Z" />
        </g>
        <g transform="translate(283.7811,343.3544)" id="g40">
          <path id="path42" style="fill:#bd2931;fill-opacity:1;fill-rule:nonzero;stroke:none" d="m 0,0 c 0,1.845 -0.027,3.373 -0.082,4.586 -0.054,1.212 -0.154,2.216 -0.298,3.012 -0.145,0.796 -0.344,1.438 -0.597,1.926 -0.253,0.489 -0.561,0.932 -0.922,1.33 -0.543,0.615 -1.222,1.113 -2.036,1.493 -0.814,0.38 -1.746,0.57 -2.795,0.57 -1.05,0 -1.99,-0.19 -2.822,-0.57 -0.833,-0.38 -1.52,-0.878 -2.062,-1.493 -0.363,-0.398 -0.661,-0.841 -0.896,-1.33 -0.236,-0.488 -0.426,-1.13 -0.57,-1.926 -0.145,-0.796 -0.244,-1.8 -0.298,-3.012 -0.055,-1.213 -0.081,-2.741 -0.081,-4.586 0,-1.846 0.026,-3.375 0.081,-4.586 0.054,-1.213 0.153,-2.217 0.298,-3.013 0.144,-0.796 0.334,-1.438 0.57,-1.926 0.235,-0.489 0.533,-0.932 0.896,-1.33 0.542,-0.615 1.229,-1.112 2.062,-1.492 0.832,-0.38 1.772,-0.57 2.822,-0.57 1.049,0 1.981,0.19 2.795,0.57 0.814,0.38 1.493,0.877 2.036,1.492 0.361,0.398 0.669,0.841 0.922,1.33 0.253,0.488 0.452,1.13 0.597,1.926 0.144,0.796 0.244,1.8 0.298,3.013 C -0.027,-3.375 0,-1.846 0,0 M 7.544,0 C 7.544,-1.665 7.525,-3.221 7.49,-4.667 7.453,-6.115 7.317,-7.472 7.083,-8.738 6.847,-10.005 6.467,-11.19 5.943,-12.293 5.418,-13.397 4.667,-14.437 3.69,-15.414 c -1.375,-1.375 -2.903,-2.424 -4.586,-3.148 -1.682,-0.724 -3.627,-1.084 -5.834,-1.084 -2.207,0 -4.161,0.36 -5.861,1.084 -1.701,0.724 -3.239,1.773 -4.614,3.148 -0.976,0.977 -1.728,2.017 -2.252,3.121 -0.524,1.103 -0.895,2.288 -1.112,3.555 -0.218,1.266 -0.345,2.623 -0.38,4.071 -0.037,1.446 -0.054,3.002 -0.054,4.667 0,1.664 0.017,3.22 0.054,4.667 0.035,1.447 0.162,2.804 0.38,4.071 0.217,1.266 0.588,2.45 1.112,3.554 0.524,1.104 1.276,2.145 2.252,3.121 1.375,1.375 2.913,2.424 4.614,3.148 1.7,0.723 3.654,1.085 5.861,1.085 2.207,0 4.152,-0.362 5.834,-1.085 C 0.787,17.837 2.315,16.788 3.69,15.413 4.667,14.437 5.418,13.396 5.943,12.292 6.467,11.188 6.847,10.004 7.083,8.738 7.317,7.471 7.453,6.114 7.49,4.667 7.525,3.22 7.544,1.664 7.544,0" />
        </g>
        <g transform="translate(322.2601,366.4203)" id="g44">
          <path id="path46" style="fill:#bd2931;fill-opacity:1;fill-rule:nonzero;stroke:none" d="M 0,0 -6.187,9.226 H 1.248 L 4.722,0 Z m -10.638,-42.387 v 38.642 h 25.454 v -6.73 h -17.91 v -9.064 h 15.251 v -6.729 H -3.094 v -9.389 h 17.91 v -6.73 z" />
        </g>
        <g transform="translate(517.9637,337.2758)" id="g48">
          <path id="path50" style="fill:#bd2931;fill-opacity:1;fill-rule:nonzero;stroke:none" d="m 0,0 c 0,-2.063 -0.372,-3.926 -1.112,-5.59 -0.742,-1.665 -1.756,-3.085 -3.04,-4.261 -1.285,-1.176 -2.786,-2.089 -4.504,-2.74 -1.72,-0.652 -3.574,-0.977 -5.564,-0.977 -1.99,0 -3.844,0.325 -5.562,0.977 -1.72,0.651 -3.221,1.564 -4.505,2.74 -1.285,1.176 -2.298,2.596 -3.039,4.261 -0.742,1.664 -1.113,3.527 -1.113,5.59 v 25.399 h 7.543 V 0.271 c 0,-2.244 0.598,-3.989 1.792,-5.237 1.194,-1.248 2.822,-1.872 4.884,-1.872 2.063,0 3.699,0.624 4.912,1.872 1.212,1.248 1.818,2.993 1.818,5.237 V 25.399 H 0 Z" />
        </g>
        <g transform="translate(546.5652,350.6268)" id="g52">
          <path id="path54" style="fill:#bd2931;fill-opacity:1;fill-rule:nonzero;stroke:none" d="M 0,0 C 0,1.592 -0.498,2.876 -1.493,3.853 -2.488,4.83 -3.854,5.318 -5.591,5.318 h -7.055 V -5.265 h 7.055 c 1.737,0 3.103,0.479 4.098,1.439 C -0.498,-2.868 0,-1.593 0,0 m 7.544,0 c 0,-1.628 -0.29,-3.175 -0.869,-4.641 -0.579,-1.465 -1.42,-2.75 -2.524,-3.853 -1.103,-1.104 -2.442,-1.972 -4.015,-2.605 -1.574,-0.633 -3.357,-0.95 -5.346,-0.95 h -7.436 v -14.545 h -7.543 V 12.048 H -5.21 c 1.989,0 3.772,-0.317 5.346,-0.949 C 1.709,10.465 3.048,9.597 4.151,8.494 5.255,7.39 6.096,6.105 6.675,4.64 7.254,3.175 7.544,1.628 7.544,0" />
        </g>
        <g transform="translate(560.4588,324.0331)" id="g56">
          <path id="path58" style="fill:#bd2931;fill-opacity:1;fill-rule:nonzero;stroke:none" d="m 0,0 v 38.642 h 25.454 v -6.73 H 7.544 v -9.063 h 15.25 v -6.73 H 7.544 V 6.73 h 17.91 V 0 Z" />
        </g>
        <g transform="translate(613.4276,350.8436)" id="g60">
          <path id="path62" style="fill:#bd2931;fill-opacity:1;fill-rule:nonzero;stroke:none" d="m 0,0 c 0,1.52 -0.498,2.75 -1.492,3.691 -0.996,0.94 -2.325,1.411 -3.989,1.411 h -7.11 V -5.102 h 7.11 c 1.664,0 2.993,0.47 3.989,1.412 C -0.498,-2.75 0,-1.52 0,0 m 0.38,-26.811 -7.544,15.414 h -5.427 v -15.414 h -7.544 v 38.643 h 15.142 c 1.954,0 3.709,-0.317 5.264,-0.95 C 1.827,10.249 3.148,9.398 4.233,8.331 5.319,7.263 6.142,6.015 6.703,4.586 7.264,3.156 7.544,1.628 7.544,0 7.544,-1.375 7.354,-2.605 6.975,-3.69 6.595,-4.776 6.079,-5.744 5.428,-6.594 4.776,-7.444 4.024,-8.168 3.175,-8.765 2.324,-9.362 1.429,-9.823 0.488,-10.149 l 8.63,-16.662 z" />
        </g>
        <path id="path64" style="fill:#bd2931;fill-opacity:1;fill-rule:nonzero;stroke:none" d="M 627.484,342.811 H 644.2 v -6.567 h -16.716 z" />
        <g transform="translate(664.8777,351.2782)" id="g66">
          <path id="path68" style="fill:#bd2931;fill-opacity:1;fill-rule:nonzero;stroke:none" d="m 0,0 -4.885,-14.057 h 9.607 z m 9.01,-27.245 -2.28,6.838 H -7.001 l -2.334,-6.838 h -7.869 l 14.057,38.642 h 5.916 l 14.11,-38.642 z" />
        </g>
        <g transform="translate(706.993,335.5389)" id="g70">
          <path id="path72" style="fill:#bd2931;fill-opacity:1;fill-rule:nonzero;stroke:none" d="M 0,0 C 0,1.303 -0.407,2.415 -1.222,3.338 -2.035,4.26 -3.311,4.722 -5.048,4.722 h -7.869 v -9.498 h 7.869 c 1.737,0 3.013,0.47 3.826,1.411 C -0.407,-2.424 0,-1.303 0,0 m -0.543,15.956 c 0,1.338 -0.426,2.415 -1.275,3.23 -0.851,0.814 -2.09,1.22 -3.718,1.22 h -7.381 v -8.9 h 7.381 c 1.628,0 2.867,0.407 3.718,1.221 0.849,0.814 1.275,1.89 1.275,3.229 M 7.544,-0.38 c 0,-1.809 -0.29,-3.401 -0.869,-4.776 -0.579,-1.375 -1.393,-2.533 -2.443,-3.473 -1.049,-0.942 -2.297,-1.656 -3.744,-2.144 -1.448,-0.489 -3.039,-0.733 -4.776,-0.733 h -16.173 v 38.642 h 15.522 c 3.799,0 6.738,-0.977 8.819,-2.93 2.08,-1.954 3.121,-4.596 3.121,-7.924 0,-1.086 -0.154,-2.063 -0.462,-2.931 C 6.231,12.483 5.834,11.713 5.346,11.044 4.857,10.375 4.332,9.805 3.771,9.335 3.21,8.864 2.694,8.521 2.225,8.304 2.803,8.014 3.409,7.643 4.043,7.191 4.676,6.738 5.245,6.168 5.753,5.481 6.259,4.794 6.684,3.97 7.028,3.012 7.371,2.053 7.544,0.922 7.544,-0.38" />
        </g>
        <path id="path74" style="fill:#bd2931;fill-opacity:1;fill-rule:nonzero;stroke:none" d="m 722.243,362.675 h 7.544 v -38.642 h -7.544 z" />
        <g transform="translate(738.7957,324.0331)" id="g76">
          <path id="path78" style="fill:#bd2931;fill-opacity:1;fill-rule:nonzero;stroke:none" d="M 0,0 V 38.642 H 7.544 V 6.73 h 17.53 V 0 Z" />
        </g>
        <g transform="translate(770.0018,324.0331)" id="g80">
          <path id="path82" style="fill:#bd2931;fill-opacity:1;fill-rule:nonzero;stroke:none" d="m 0,0 v 38.642 h 25.454 v -6.73 H 7.544 v -9.063 h 15.25 v -6.73 H 7.544 V 6.73 h 17.91 V 0 Z" />
        </g>
        <g transform="translate(813.4197,350.3553)" id="g84">
          <path id="path86" style="fill:#bd2931;fill-opacity:1;fill-rule:nonzero;stroke:none" d="M 0,0 V 12.32 H 7.381 V 5.59 Z M -11.397,0 V 12.32 H -4.07 V 5.59 Z" />
        </g>
        <g transform="translate(445.2288,370.8226)" id="g88">
          <path id="path90" style="fill:#bd2931;fill-opacity:1;fill-rule:evenodd;stroke:none" d="m 0,0 c -10.012,0.529 -20.023,-0.211 -30.036,0.635 -6.842,0.951 -20.059,3.915 -19.881,10.153 0.254,6.45 11.741,11.104 17.612,12.055 8.451,1.465 18.794,-0.227 23.228,-2.538 C -0.108,16.041 1.621,10.506 3.565,4.97 11.344,4.97 24.85,3.567 26.267,5.488 27.684,7.41 26.9,14.278 26.9,18.93 31.222,14.875 35.544,10.823 39.865,6.769 34.499,0.564 29.133,-5.639 23.767,-11.844 17.3,-3.833 9.265,0.115 0,0 m -22.583,-34.369 c -5.564,3.264 -16.999,6.481 -27.548,4.442 -3.603,3.983 -7.095,7.967 -10.698,11.949 16.52,-2.829 19.263,-3.956 55.102,-3.914 2.234,0.002 12.677,-1.727 12.964,-6.448 -1.693,-7.051 -24.56,-9.448 -29.82,-6.029 m 2.486,-28.447 c -5.582,6.168 -11.163,12.337 -16.745,18.505 10.949,-4.442 24.163,-3.489 32.842,0 -5.364,-6.168 -10.731,-12.337 -16.097,-18.505 m -52.25,57.225 c -3.449,3.782 -6.899,7.56 -10.347,11.341 5.192,5.939 10.381,11.884 15.572,17.826 h 12.016 C -70.36,16.287 -75.676,2.757 -72.347,-5.591 m 85.419,29.174 c -1.873,-2.115 -3.939,-6.245 -5.618,-6.345 -1.678,-0.1 -3.89,4.124 -7.131,6.345 z m 11.014,8.236 H -68.439 L -91.879,5.136 -20.048,-73.432 49.833,7.251 Z" />
        </g>
      </g>
    </g>
  </g>
</svg>