<?xml version="1.0" standalone="no"?>
<!DOCTYPE svg PUBLIC "-//W3C//DTD SVG 20010904//EN"
 "http://www.w3.org/TR/2001/REC-SVG-20010904/DTD/svg10.dtd">
<svg version="1.0" xmlns="http://www.w3.org/2000/svg"
 width="512.000000pt" height="512.000000pt" viewBox="0 0 512.000000 512.000000"
 preserveAspectRatio="xMidYMid meet">

<g transform="translate(0.000000,512.000000) scale(0.100000,-0.100000)"
fill="#000000" stroke="none">
<path d="M2440 4721 c-30 -4 -72 -11 -92 -15 -67 -12 -90 -82 -43 -126 l25
-23 129 13 c263 27 466 -18 596 -130 25 -22 58 -43 73 -46 15 -3 54 -15 88
-25 208 -66 333 -264 334 -527 0 -66 5 -95 26 -145 22 -53 26 -72 22 -133 -6
-85 -35 -143 -111 -216 -80 -79 -117 -74 -152 20 -30 82 -66 135 -155 229 -77
80 -92 102 -125 183 -39 93 -54 110 -100 110 -26 0 -41 -12 -106 -92 -80 -96
-179 -126 -459 -138 -204 -9 -267 -19 -367 -58 -124 -47 -207 -115 -285 -229
-27 -40 -52 -73 -55 -73 -4 0 -24 12 -45 26 -43 30 -83 79 -104 129 -17 41
-19 153 -2 192 7 16 12 85 13 163 1 143 12 194 63 295 71 142 235 281 415 351
93 36 119 83 76 138 -30 39 -66 33 -194 -28 -206 -100 -353 -235 -434 -400
-52 -104 -74 -197 -75 -317 l-1 -96 -55 15 c-34 9 -79 12 -118 9 -47 -4 -72 0
-100 13 -58 28 -176 43 -272 36 -368 -28 -639 -259 -764 -651 -57 -181 -80
-337 -81 -555 0 -182 11 -256 57 -390 37 -104 142 -312 179 -351 51 -55 117
-31 139 50 6 23 14 41 18 41 4 0 27 -21 52 -47 49 -50 131 -107 198 -137 40
-18 43 -22 40 -54 -3 -34 -4 -35 -98 -69 -52 -19 -102 -40 -110 -48 -8 -7 -40
-25 -72 -39 -61 -29 -165 -116 -215 -181 -89 -118 -139 -267 -149 -455 -7
-127 1 -171 37 -190 11 -6 257 -10 629 -10 l612 0 -7 -127 c-8 -150 1 -204 40
-221 37 -17 2373 -17 2410 0 39 17 48 71 40 221 l-7 127 612 0 c372 0 618 4
629 10 36 19 44 63 37 190 -10 188 -60 337 -149 455 -50 65 -154 152 -215 181
-32 14 -64 32 -72 39 -8 8 -58 29 -110 48 -93 33 -95 35 -98 68 -3 33 0 35 70
71 95 49 127 76 134 115 5 26 1 37 -19 57 -35 35 -62 33 -138 -13 -110 -67
-177 -85 -304 -85 -81 0 -125 5 -165 18 -136 47 -264 150 -323 263 -57 110
-68 161 -72 325 l-4 148 47 20 c85 38 148 117 181 228 16 55 19 57 62 69 24 6
90 12 146 12 134 1 243 23 325 65 l68 34 19 -32 c11 -17 41 -51 67 -76 28 -27
58 -71 76 -110 33 -73 66 -113 110 -131 l31 -12 -6 -181 c-4 -150 -9 -193 -27
-251 -12 -38 -22 -81 -22 -93 -1 -56 83 -87 121 -46 21 22 46 88 61 160 11 50
12 52 51 57 53 7 100 40 136 96 39 60 52 100 59 180 10 107 -18 214 -72 271
-21 23 -23 30 -14 60 14 49 12 128 -6 175 -8 22 -19 85 -24 140 -20 214 -99
340 -266 425 -32 16 -66 30 -74 30 -9 0 -46 20 -83 44 -128 84 -289 118 -469
98 -113 -12 -265 -49 -342 -82 -35 -14 -51 -17 -56 -10 -4 6 -10 62 -13 123
-6 119 -27 206 -71 300 -35 73 -103 163 -155 205 -58 46 -177 109 -236 123
-28 7 -72 28 -101 50 -68 52 -184 104 -286 129 -92 23 -314 34 -408 21z m1950
-1031 c36 -12 88 -39 115 -60 28 -21 70 -43 95 -50 161 -42 236 -144 250 -341
5 -63 15 -119 24 -137 34 -66 8 -162 -60 -222 -43 -37 -52 -37 -65 -2 -26 68
-57 116 -111 172 -40 41 -70 84 -92 133 -35 75 -67 103 -103 90 -10 -3 -43
-32 -73 -63 -76 -78 -112 -89 -330 -100 -96 -5 -175 -8 -176 -7 0 1 -6 33 -13
71 -15 84 -41 138 -93 192 l-40 41 16 47 c9 26 16 71 16 101 l0 54 47 21 c194
86 442 111 593 60z m-3380 -21 c25 -5 61 -21 81 -35 36 -24 39 -25 98 -13 51
11 71 11 119 -1 l57 -15 6 -80 c4 -44 10 -90 14 -102 6 -18 -1 -32 -28 -63
-41 -45 -71 -100 -82 -148 -7 -32 -8 -33 -28 -17 -47 34 -144 75 -177 75 -58
0 -322 -154 -358 -208 -19 -29 -8 -67 29 -94 31 -23 53 -16 148 46 36 24 94
58 128 76 l62 32 44 -25 c77 -46 131 -117 154 -204 8 -32 27 -80 42 -108 33
-59 45 -109 66 -270 9 -66 25 -170 36 -232 19 -106 19 -114 3 -145 -25 -49
-152 -169 -211 -201 -68 -36 -191 -67 -268 -67 -77 0 -201 31 -268 67 -69 37
-165 129 -204 195 l-33 54 35 149 c43 185 56 224 113 353 51 114 51 143 0 171
-48 27 -77 7 -125 -84 -57 -108 -96 -233 -148 -465 l-43 -195 -22 50 c-93 208
-114 351 -90 610 47 507 255 813 605 890 73 16 184 18 245 4z m1956 -51 c15
-24 62 -79 104 -123 81 -84 87 -93 144 -216 37 -79 79 -120 139 -134 l27 -7 0
-253 c0 -280 -8 -345 -59 -465 -80 -188 -221 -336 -404 -425 -127 -61 -205
-78 -357 -78 -144 0 -224 16 -334 67 -222 102 -372 268 -453 503 -26 77 -27
83 -31 380 -3 289 -3 301 15 307 27 9 67 52 116 127 95 145 255 209 518 209
216 0 380 37 480 109 29 22 57 40 61 40 4 1 20 -18 34 -41z m717 -402 c29 -56
36 -210 13 -288 -28 -97 -83 -155 -134 -141 -22 5 -22 8 -22 206 l0 201 48 42
c53 47 60 46 95 -20z m-2130 -11 l27 -17 0 -198 c0 -189 -1 -199 -20 -205 -28
-9 -71 15 -97 54 -36 53 -53 126 -53 220 1 87 13 139 45 187 l17 26 26 -25
c15 -13 39 -32 55 -42z m3413 -493 c9 -60 -4 -146 -29 -183 -42 -61 -47 -51
-47 87 0 117 2 130 22 151 20 22 22 22 34 4 7 -10 16 -37 20 -59z m-3367 -139
c7 -38 23 -103 37 -146 20 -61 25 -89 19 -125 -8 -58 -35 -164 -45 -175 -8 -9
-30 104 -60 306 -11 73 -22 146 -25 164 -5 29 -3 32 22 36 15 2 31 5 34 6 4 0
12 -29 18 -66z m1881 -289 c17 -80 62 -185 106 -250 60 -87 169 -185 257 -229
76 -39 78 -41 75 -74 -3 -33 -5 -35 -97 -68 -51 -18 -105 -42 -119 -53 -13
-11 -30 -20 -37 -20 -22 0 -134 -79 -179 -126 l-44 -46 -47 32 c-26 18 -79 47
-119 66 -40 18 -78 40 -85 48 -7 8 -78 37 -157 63 l-144 47 0 72 0 71 64 27
c188 80 375 255 467 438 16 32 33 58 38 58 5 0 15 -25 21 -56z m-1627 -217
c91 -93 178 -156 289 -210 l88 -42 0 -70 0 -71 -144 -47 c-79 -26 -150 -55
-157 -63 -7 -8 -45 -30 -85 -48 -40 -19 -93 -48 -119 -66 l-47 -32 -44 46
c-45 47 -157 126 -179 126 -7 0 -24 9 -37 20 -14 11 -68 35 -119 53 -92 33
-94 35 -97 68 -3 33 0 35 72 72 41 21 104 65 140 98 43 40 68 56 70 47 3 -7
10 -32 16 -55 20 -80 81 -96 137 -35 36 39 103 168 124 240 7 23 14 42 16 42
2 0 37 -33 76 -73z m877 -389 l0 -88 -170 0 -170 0 0 88 0 87 170 0 170 0 0
-87z m-1682 3 l3 -41 -105 0 -106 0 0 38 c0 21 2 41 4 43 2 2 49 3 103 2 l98
-1 3 -41z m3230 0 l3 -41 -105 0 -106 0 0 38 c0 21 2 41 4 43 2 2 49 3 103 2
l98 -1 3 -41z m-3528 -366 c29 -124 51 -227 49 -228 -2 -2 -46 41 -97 94 l-93
98 3 117 3 117 35 13 c19 7 38 13 41 13 3 1 29 -100 59 -224z m508 204 c21 -8
22 -13 22 -124 l0 -116 -92 -98 c-51 -54 -95 -96 -97 -94 -2 1 20 104 49 228
59 247 49 230 118 204z m2722 -204 c29 -124 51 -227 49 -228 -2 -2 -46 41 -97
94 l-93 98 3 117 3 117 35 13 c19 7 38 13 41 13 3 1 29 -100 59 -224z m508
204 c21 -8 22 -13 22 -124 l0 -116 -92 -98 c-51 -54 -95 -96 -97 -94 -2 1 20
104 49 228 59 247 49 230 118 204z m-2153 -441 c57 -238 102 -434 101 -436 -2
-1 -54 35 -117 81 l-114 83 -3 79 c-1 44 -4 90 -7 102 -3 12 -34 43 -70 69
l-65 48 2 180 3 179 80 27 c44 15 82 26 83 24 2 -1 50 -197 107 -436z m723
206 l2 -180 -65 -48 c-36 -26 -67 -57 -70 -69 -3 -12 -6 -58 -7 -102 l-3 -79
-114 -83 c-63 -46 -115 -82 -117 -81 -2 2 144 624 201 855 l5 22 83 -28 82
-28 3 -179z m-2033 194 c-2 -7 -20 -83 -40 -168 -20 -85 -37 -156 -39 -158 -2
-1 -18 59 -36 135 -17 76 -35 153 -40 171 l-8 32 83 0 c63 0 83 -3 80 -12z
m3230 0 c-2 -7 -20 -83 -40 -168 -20 -85 -37 -156 -39 -158 -2 -1 -18 59 -36
135 -17 76 -35 153 -40 171 l-8 32 83 0 c63 0 83 -3 80 -12z m-1571 -175 c-18
-76 -52 -220 -75 -320 -24 -101 -46 -183 -49 -183 -3 0 -25 82 -49 183 -23
100 -57 244 -75 320 l-33 137 157 0 157 0 -33 -137z m-2224 31 c0 -53 5 -105
12 -117 6 -12 76 -91 156 -174 l144 -153 -292 0 -293 0 7 80 c4 44 15 109 25
144 18 66 75 174 113 216 32 35 110 100 120 100 4 0 8 -43 8 -96z m1049 39
l61 -58 -50 -65 c-57 -74 -130 -217 -155 -302 l-16 -58 -116 0 -115 0 133 140
c186 195 179 183 179 301 0 55 4 99 9 99 4 0 36 -26 70 -57z m2181 -42 c0
-118 -7 -106 179 -301 l133 -140 -115 0 -116 0 -16 58 c-25 85 -98 228 -155
302 l-50 65 61 58 c34 31 66 57 70 57 5 0 9 -44 9 -99z m1031 62 c64 -55 85
-80 126 -152 44 -78 69 -164 79 -271 l7 -80 -293 0 -292 0 144 153 c80 83 150
162 156 174 7 12 12 64 12 117 0 53 4 96 8 96 5 0 28 -17 53 -37z m-2811 -179
c0 -91 4 -174 10 -184 6 -10 37 -38 70 -61 l60 -42 0 -78 c0 -43 4 -89 10
-103 5 -15 57 -61 127 -112 65 -48 122 -91 127 -95 6 -5 -176 -9 -417 -9
l-427 0 0 104 c0 307 146 579 390 724 19 11 38 21 43 21 4 1 7 -74 7 -165z
m1362 135 c232 -137 378 -412 378 -715 l0 -104 -427 0 c-241 0 -423 4 -417 9
5 4 62 47 127 95 70 51 122 97 127 112 6 14 10 60 10 103 l0 78 60 42 c33 23
64 51 70 61 6 10 10 93 10 184 0 91 2 166 5 166 2 0 28 -14 57 -31z"/>
<path d="M2001 3182 c-36 -11 -65 -55 -57 -85 13 -52 28 -57 160 -57 76 0 143
-6 179 -15 80 -21 110 -19 135 8 45 48 14 105 -71 132 -56 18 -303 30 -346 17z"/>
<path d="M2850 3183 c-14 -3 -49 -11 -77 -19 -85 -25 -118 -87 -70 -132 27
-26 56 -27 134 -7 36 9 103 15 179 15 132 0 147 5 160 56 8 30 -18 71 -52 84
-25 10 -224 12 -274 3z"/>
<path d="M2105 2585 c-33 -32 -31 -62 4 -116 61 -91 163 -163 286 -202 91 -28
251 -30 340 -3 115 34 209 101 267 190 44 69 47 98 13 131 -34 35 -71 32 -104
-6 -87 -102 -116 -128 -163 -149 -74 -32 -169 -43 -253 -30 -117 18 -187 61
-281 173 -38 45 -73 49 -109 12z"/>
</g>
</svg>
